<?xml version="1.0" encoding="utf-8"?>
<!-- Generator: Adobe Illustrator 18.1.1, SVG Export Plug-In . SVG Version: 6.00 Build 0)  -->
<!DOCTYPE svg PUBLIC "-//W3C//DTD SVG 1.1//EN" "http://www.w3.org/Graphics/SVG/1.1/DTD/svg11.dtd">
<svg version="1.1" id="Layer_1" xmlns="http://www.w3.org/2000/svg" xmlns:xlink="http://www.w3.org/1999/xlink" x="0px" y="0px"
	 viewBox="0 0 100 100" enable-background="new 0 0 100 100" xml:space="preserve">
<g>
	<path d="M32,90.2l-4.5-4.5l18.1-18.1L31,53.1l-18,18.1l-4.5-4.4l18.1-18.1L10.7,32.7l4.4-4.5l16,16l14.5-14.5l-15.9-16l4.4-4.5
		l16,16L66,9.3l4.5,4.4L54.5,29.6l14.6,14.6l15.9-15.9l4.5,4.4L73.5,48.6l18.1,18.1l-4.4,4.5L69,53.1L54.5,67.6l18.1,18.1l-4.4,4.5
		L50,72.1L32,90.2z M35.5,48.6L50,63.2l14.6-14.5L50,34.1L35.5,48.6z" fill="#2d2d2d" />
</g>
</svg>
